<?xml version="1.0" encoding="UTF-8"?>
<!DOCTYPE svg PUBLIC "-//W3C//DTD SVG 1.1//EN" "http://www.w3.org/Graphics/SVG/1.1/DTD/svg11.dtd">
<!-- Creator: CorelDRAW 2020 (64-Bit Versión de evaluación) -->
<svg xmlns="http://www.w3.org/2000/svg" xml:space="preserve" width="25.5084mm" height="25.5416mm" version="1.1" style="shape-rendering:geometricPrecision; text-rendering:geometricPrecision; image-rendering:optimizeQuality; fill-rule:evenodd; clip-rule:evenodd"
viewBox="0 0 2463.2 2466.4"
 xmlns:xlink="http://www.w3.org/1999/xlink"
 xmlns:xodm="http://www.corel.com/coreldraw/odm/2003">
 <defs>
  <style type="text/css">
   <![CDATA[
    .fil0 {fill:#FDFDFD}
   ]]>
  </style>
 </defs>
 <g id="Capa_x0020_1">
  <metadata id="CorelCorpID_0Corel-Layer"/>
  <path class="fil0" d="M1276.73 1101.33l288.89 0c-4.54,6.77 -9.49,11.53 -16.57,16.97l-238.19 226.11c-42.75,39.53 -34.14,25 -34.14,99.97l853.74 0 -899.52 900.81c-17.28,-11.79 -53.78,-52.78 -70.88,-69.69l-175.44 -172.76c-12.54,-12.61 -23.47,-20.86 -36.11,-33.54 -47.02,-47.08 -92.24,-92.21 -139.29,-139.26l-668.02 -657.72c-10.59,-10.59 -27.95,-25.53 -35.47,-36.74 7.21,-4.85 11.31,-10.2 19.53,-16.57 8.17,-6.31 12.73,-11.82 19.81,-18.92 14.24,-14.29 29.53,-24.03 38.03,-36.75l-95.5 -0.09c-19.79,-0.22 -18.83,-3.41 -41.81,22.68l-30.96 33.54c-4.18,4.71 -11.79,14.14 -14.84,18.68l1229.68 1228.36 1105.21 -1103.92 -916.3 -0.65 74.16 -70.28c12.83,-12.92 24.33,-21.64 37.39,-34.82 7.85,-7.93 10.86,-9.87 19.25,-16.89 6.55,-5.46 12.03,-11.74 18.16,-17.94l94.2 -86.35c64.25,-61.83 53.48,-35.42 53.48,-106.43l-438.49 0 0 72.21zm-1158.72 7.1l949.81 0.65c82.39,0 90.27,-0.4 90.27,69.64 0,27.4 -11.91,46.42 -41.26,46.42l-270.81 0 0 -72.21c0,-5.95 -1.82,-7.74 -7.74,-7.74l-77.39 0 0 306.94 85.13 0 0 -149.6 170.21 0c7.73,0 8.85,5.79 12.61,10.6l31.58 38.07c6.86,8.65 13.49,17.06 20.96,25.46 84.27,94.57 28.03,75.46 159.25,75.46l-116.06 -147.03c24.37,-0.53 61.81,-16.71 81.06,-29.83 40.66,-27.69 35,-92.25 35,-137.83 0,-37.7 -19.58,-67.89 -42.72,-83.67 -29.16,-19.88 -59.36,-22.07 -106.89,-22.07l-773.77 0 797.64 -796.35c17.48,-17.5 104.27,-106.67 115.42,-114.13l588.75 589.97c7.23,7.19 8.94,11.12 15.4,18.12l435.94 435.86c7.5,7.41 9.03,10.11 15.58,17.94l53.41 52.37 -70.24 71.59 98.65 0.66c35.83,0.38 18.97,-2.16 44.91,-22.16l50.48 -50.09c-11.15,-7.48 -27.4,-26.11 -38.06,-36.77l-1197.42 -1198.7 -1109.72 1108.43z"/>
 </g>
</svg>
